<svg xmlns="http://www.w3.org/2000/svg" xmlns:xlink="http://www.w3.org/1999/xlink" viewBox="0 0 438.72 438.72" preserveAspectRatio="xMinYMin meet">
<title>Orbit Icon</title>
<path style="stroke:none; fill:rgb(0,0,0);" d="m 205.26589,2.1914811 c -22.12929,0 -42.89787,18.9059779 -57.67322,54.2446309 8.92454,2.725299 18.04876,5.943661 27.3125,9.625 7.91813,-23.055348 17.85931,-36.8125 28.65625,-36.8125 10.62189,0 20.42726,13.304771 28.28125,35.6875 9.88584,-3.878348 19.60933,-7.24772 29.09375,-10.03125 C 246.22392,20.465088 227.07581,2.1914811 205.26589,2.1914811 z M 69.092675,57.342362 c -21.89395,0.01243 -38.80648,5.721058 -48.25,17.78125 -2.60094,3.321624 -4.51815,7.008975 -5.84375,11.03125 -0.17963,0.545046 -0.3432,1.099243 -0.5,1.65625 -0.11021,0.3915 -0.21351,0.79018 -0.3125,1.1875 -0.04619,0.17795 -0.11234,0.35213 -0.15625,0.53125 -0.02208,0.09399 -0.04104,0.18694 -0.0625,0.28125 -3.14145,13.208548 -0.17229,29.569638 8.03125,47.718748 l 0.28125,0 c 0.7575,1.66285 1.56193,3.30838 2.40625,5 -4.2469,5.55279 -6.75,12.42702 -6.75,19.875 0,18.43248 15.3923,33.375 34.375,33.375 2.92185,0 5.76022,-0.33373 8.46875,-1 0.10217,0.11774 0.21003,0.22598 0.3125,0.34375 0.17606,-0.19515 0.35462,-0.39855 0.53125,-0.59375 14.45496,-3.94425 25.0625,-16.82845 25.0625,-32.125 0,-18.40166 -15.34232,-33.32515 -34.28125,-33.375 -6.19029,-10.74099 -9.14014,-19.90947 -8.28125,-26.90625 0.01681,-0.13696 0.04277,-0.27098 0.0625,-0.40625 0.0157,-0.0935 0.01411,-0.18856 0.03125,-0.28125 0.04585,-0.2828 0.12859,-0.56856 0.1875,-0.84375 0.08097,-0.33806 0.14855,-0.67396 0.25,-1 0.50724,-1.6302 1.28168,-3.0898 2.3125,-4.406248 12.50147,-15.965459 60.623125,-3.6314 119.499995,27.718748 -5.86461,3.78667 -11.74845,7.72519 -17.59375,11.8125 -101.479515,70.95931 -159.250495,159.7824 -129.031245,198.375 30.21926,38.59259 136.989225,12.33431 238.468745,-58.625 101.47955,-70.9593 159.25051,-159.75114 129.03125,-198.343748 -24.69295,-31.535047 -100.48969,-19.785076 -182.75,24.281248 -6.62201,-3.56842 -13.20116,-6.917418 -19.71875,-10.062498 0.1252,-0.08194 0.2498,-0.16818 0.375,-0.25 -43.98947,-21.262255 -85.08232,-32.767644 -116.156245,-32.75 z m 271.718745,31.4375 c 9.55189,-0.07534 16.54654,2.15929 20.3125,6.96875 17.21583,21.986098 -39.65985,89.343258 -127.03125,150.437498 -87.37139,61.09422 -172.159175,92.79858 -189.374995,70.8125 -17.21583,-21.98611 39.65986,-89.31201 127.031245,-150.40625 11.0072,-7.69675 21.98625,-14.9407 32.78125,-21.65625 5.15409,3.21772 10.34642,6.55377 15.5625,10 -0.0643,0.0402 -0.12315,0.0847 -0.1875,0.125 5.14702,3.40974 10.32124,6.91001 15.5,10.53125 14.24154,9.95837 27.66118,20.08941 40.09375,30.15625 10.76361,-9.11951 20.42857,-17.87847 28.78125,-26.125 -3.52259,-3.07 -7.12432,-6.14343 -10.8125,-9.1875 l 0.40625,0 c -10.87835,-8.9457 -22.46212,-17.76393 -34.6875,-26.3125 -5.5036,-3.84838 -11.00975,-7.57413 -16.53125,-11.15625 40.70007,-21.56578 76.18888,-34.014238 98.15625,-34.187498 z m 17.34375,124.437498 c -18.9827,0 -34.375,14.94252 -34.375,33.375 0,18.07872 14.80245,32.78533 33.28125,33.34375 9.52685,15.90298 12.21947,28.62986 6.375,36.09375 -11.63071,14.85341 -54.10436,5.1668 -107.375,-21.5 -11.165,7.807 -22.35845,15.15727 -33.5,21.96875 75.53006,36.79681 142.76905,44.94239 165.75,15.59375 11.97769,-15.29655 10.13318,-38.50667 -2.78125,-65.34375 4.3789,-5.60116 7,-12.5816 7,-20.15625 0,-18.43248 -15.3923,-33.375 -34.375,-33.375 z m -223.21875,3.40625 c -10.26937,8.59736 -19.53576,16.87969 -27.71875,24.75 12.84905,10.94535 26.76071,21.69993 41.625,32.09375 2.376,1.66142 4.77549,3.29411 7.15625,4.90625 11.28485,-6.19416 23.14735,-13.20625 35.25,-20.875 -6.02602,-3.95441 -12.08336,-8.06605 -18.15625,-12.3125 -13.50167,-9.44101 -26.27166,-19.01355 -38.15625,-28.5625 z m 37.34375,119.25 c -9.13967,3.58327 -18.13587,6.66459 -26.9375,9.3125 14.95172,38.61044 35.95245,62.65625 59.21875,62.65625 22.95612,0 43.71397,-23.41467 58.625,-61.125 -9.3428,-2.69717 -18.91405,-5.95216 -28.65625,-9.71875 -8.24948,27.32567 -19.10181,43.9375 -30.96875,43.9375 -12.03092,0 -22.99047,-17.05926 -31.28125,-45.0625 z"/>
</svg>